<svg width="205" height="35" viewBox="0 0 205 35" fill="none" xmlns="http://www.w3.org/2000/svg">
<path d="M60.784 10.67C60.832 10.514 60.916 10.4 61.036 10.328C61.156 10.244 61.288 10.202 61.432 10.202C61.624 10.202 61.786 10.262 61.918 10.382C62.062 10.49 62.134 10.64 62.134 10.832C62.134 10.916 62.116 11.012 62.08 11.12L58.012 22.586C57.952 22.754 57.85 22.886 57.706 22.982C57.562 23.066 57.4 23.108 57.22 23.108C57.052 23.108 56.896 23.066 56.752 22.982C56.608 22.886 56.506 22.754 56.446 22.586L52.918 12.614L49.354 22.586C49.294 22.754 49.192 22.886 49.048 22.982C48.904 23.066 48.748 23.108 48.58 23.108C48.412 23.108 48.256 23.066 48.112 22.982C47.968 22.886 47.866 22.754 47.806 22.586L43.72 11.12C43.684 11.024 43.666 10.934 43.666 10.85C43.666 10.658 43.738 10.502 43.882 10.382C44.038 10.262 44.212 10.202 44.404 10.202C44.548 10.202 44.68 10.244 44.8 10.328C44.932 10.4 45.022 10.514 45.07 10.67L48.616 20.894L52.216 10.778C52.276 10.598 52.372 10.466 52.504 10.382C52.636 10.286 52.78 10.238 52.936 10.238C53.092 10.238 53.236 10.286 53.368 10.382C53.5 10.478 53.596 10.616 53.656 10.796L57.202 20.93L60.784 10.67ZM69.9446 20.966C70.0766 20.966 70.1906 21.02 70.2866 21.128C70.3826 21.236 70.4306 21.374 70.4306 21.542C70.4306 21.842 70.2206 22.118 69.8006 22.37C69.3686 22.622 68.9126 22.814 68.4326 22.946C67.9526 23.066 67.4846 23.126 67.0286 23.126C65.6726 23.126 64.5986 22.724 63.8066 21.92C63.0266 21.116 62.6366 20.006 62.6366 18.59C62.6366 17.69 62.8106 16.898 63.1586 16.214C63.5066 15.518 63.9926 14.978 64.6166 14.594C65.2526 14.21 65.9726 14.018 66.7766 14.018C67.9166 14.018 68.8226 14.39 69.4946 15.134C70.1666 15.878 70.5026 16.886 70.5026 18.158C70.5026 18.398 70.4546 18.572 70.3586 18.68C70.2626 18.788 70.1066 18.842 69.8906 18.842H64.0946C64.2026 20.906 65.1806 21.938 67.0286 21.938C67.4966 21.938 67.8986 21.878 68.2346 21.758C68.5706 21.626 68.9306 21.452 69.3146 21.236C69.6266 21.056 69.8366 20.966 69.9446 20.966ZM66.7946 15.152C66.0266 15.152 65.4086 15.392 64.9406 15.872C64.4846 16.352 64.2146 17.03 64.1306 17.906H69.2246C69.2006 17.018 68.9786 16.34 68.5586 15.872C68.1386 15.392 67.5506 15.152 66.7946 15.152ZM76.2328 14.018C78.4288 14.018 79.5268 15.17 79.5268 17.474V22.37C79.5268 22.586 79.4608 22.76 79.3288 22.892C79.2088 23.024 79.0408 23.09 78.8248 23.09C78.6088 23.09 78.4348 23.024 78.3028 22.892C78.1708 22.76 78.1048 22.586 78.1048 22.37V21.506C77.8768 22.022 77.5288 22.424 77.0608 22.712C76.5928 22.988 76.0528 23.126 75.4408 23.126C74.8768 23.126 74.3548 23.012 73.8748 22.784C73.4068 22.556 73.0348 22.238 72.7588 21.83C72.4828 21.422 72.3448 20.972 72.3448 20.48C72.3448 19.82 72.5128 19.31 72.8488 18.95C73.1848 18.578 73.7368 18.314 74.5048 18.158C75.2728 17.99 76.3408 17.906 77.7088 17.906H78.1048V17.312C78.1048 16.592 77.9548 16.064 77.6548 15.728C77.3668 15.392 76.8928 15.224 76.2328 15.224C75.4168 15.224 74.5888 15.446 73.7488 15.89C73.4248 16.094 73.1968 16.196 73.0648 16.196C72.9208 16.196 72.8008 16.142 72.7048 16.034C72.6088 15.926 72.5608 15.788 72.5608 15.62C72.5608 15.452 72.6088 15.308 72.7048 15.188C72.8128 15.056 72.9808 14.924 73.2088 14.792C73.6288 14.552 74.1028 14.366 74.6308 14.234C75.1708 14.09 75.7048 14.018 76.2328 14.018ZM75.6388 21.974C76.3588 21.974 76.9468 21.734 77.4028 21.254C77.8708 20.762 78.1048 20.132 78.1048 19.364V18.842H77.7808C76.7248 18.842 75.9208 18.89 75.3688 18.986C74.8168 19.07 74.4208 19.22 74.1808 19.436C73.9528 19.64 73.8388 19.946 73.8388 20.354C73.8388 20.822 74.0068 21.212 74.3428 21.524C74.6908 21.824 75.1228 21.974 75.6388 21.974ZM86.2457 21.938C86.6657 21.974 86.8757 22.166 86.8757 22.514C86.8757 22.718 86.7977 22.874 86.6417 22.982C86.4977 23.078 86.2757 23.114 85.9757 23.09L85.4897 23.054C84.5297 22.982 83.8217 22.694 83.3657 22.19C82.9097 21.686 82.6817 20.924 82.6817 19.904V15.386H81.4757C81.2717 15.386 81.1097 15.338 80.9897 15.242C80.8817 15.134 80.8277 14.996 80.8277 14.828C80.8277 14.648 80.8817 14.504 80.9897 14.396C81.1097 14.288 81.2717 14.234 81.4757 14.234H82.6817V12.2C82.6817 11.972 82.7477 11.798 82.8797 11.678C83.0117 11.546 83.1917 11.48 83.4197 11.48C83.6357 11.48 83.8097 11.546 83.9417 11.678C84.0737 11.798 84.1397 11.972 84.1397 12.2V14.234H86.1377C86.3297 14.234 86.4797 14.288 86.5877 14.396C86.7077 14.504 86.7677 14.648 86.7677 14.828C86.7677 14.996 86.7077 15.134 86.5877 15.242C86.4797 15.338 86.3297 15.386 86.1377 15.386H84.1397V19.976C84.1397 20.636 84.2717 21.116 84.5357 21.416C84.8117 21.704 85.2197 21.866 85.7597 21.902L86.2457 21.938ZM92.7409 14.018C93.7729 14.018 94.5529 14.312 95.0809 14.9C95.6089 15.476 95.8729 16.34 95.8729 17.492V22.37C95.8729 22.598 95.8069 22.778 95.6749 22.91C95.5429 23.03 95.3689 23.09 95.1529 23.09C94.9249 23.09 94.7449 23.03 94.6129 22.91C94.4809 22.778 94.4149 22.598 94.4149 22.37V17.528C94.4149 16.748 94.2529 16.172 93.9289 15.8C93.6169 15.428 93.1129 15.242 92.4169 15.242C91.6129 15.242 90.9709 15.488 90.4909 15.98C90.0109 16.472 89.7709 17.138 89.7709 17.978V22.37C89.7709 22.598 89.7049 22.778 89.5729 22.91C89.4529 23.03 89.2789 23.09 89.0509 23.09C88.8229 23.09 88.6429 23.03 88.5109 22.91C88.3789 22.778 88.3129 22.598 88.3129 22.37V10.922C88.3129 10.718 88.3789 10.55 88.5109 10.418C88.6549 10.286 88.8349 10.22 89.0509 10.22C89.2789 10.22 89.4529 10.286 89.5729 10.418C89.7049 10.538 89.7709 10.706 89.7709 10.922V15.638C90.0589 15.11 90.4609 14.708 90.9769 14.432C91.4929 14.156 92.0809 14.018 92.7409 14.018ZM105.329 20.966C105.461 20.966 105.575 21.02 105.671 21.128C105.767 21.236 105.815 21.374 105.815 21.542C105.815 21.842 105.605 22.118 105.185 22.37C104.753 22.622 104.297 22.814 103.817 22.946C103.337 23.066 102.869 23.126 102.413 23.126C101.057 23.126 99.9834 22.724 99.1914 21.92C98.4114 21.116 98.0214 20.006 98.0214 18.59C98.0214 17.69 98.1954 16.898 98.5434 16.214C98.8914 15.518 99.3774 14.978 100.001 14.594C100.637 14.21 101.357 14.018 102.161 14.018C103.301 14.018 104.207 14.39 104.879 15.134C105.551 15.878 105.887 16.886 105.887 18.158C105.887 18.398 105.839 18.572 105.743 18.68C105.647 18.788 105.491 18.842 105.275 18.842H99.4794C99.5874 20.906 100.565 21.938 102.413 21.938C102.881 21.938 103.283 21.878 103.619 21.758C103.955 21.626 104.315 21.452 104.699 21.236C105.011 21.056 105.221 20.966 105.329 20.966ZM102.179 15.152C101.411 15.152 100.793 15.392 100.325 15.872C99.8694 16.352 99.5994 17.03 99.5154 17.906H104.609C104.585 17.018 104.363 16.34 103.943 15.872C103.523 15.392 102.935 15.152 102.179 15.152ZM112.374 14.054C112.878 14.018 113.13 14.222 113.13 14.666C113.13 14.858 113.076 15.014 112.968 15.134C112.86 15.242 112.674 15.308 112.41 15.332L111.87 15.386C111.066 15.458 110.466 15.746 110.07 16.25C109.686 16.742 109.494 17.324 109.494 17.996V22.37C109.494 22.61 109.428 22.79 109.296 22.91C109.164 23.03 108.99 23.09 108.774 23.09C108.558 23.09 108.378 23.03 108.234 22.91C108.102 22.778 108.036 22.598 108.036 22.37V14.774C108.036 14.546 108.108 14.372 108.252 14.252C108.396 14.12 108.57 14.054 108.774 14.054C108.966 14.054 109.128 14.12 109.26 14.252C109.392 14.372 109.458 14.54 109.458 14.756V15.764C109.71 15.236 110.064 14.834 110.52 14.558C110.988 14.282 111.522 14.12 112.122 14.072L112.374 14.054ZM119.994 23C119.766 23 119.58 22.934 119.436 22.802C119.304 22.67 119.238 22.496 119.238 22.28V11.03C119.238 10.814 119.304 10.64 119.436 10.508C119.58 10.376 119.766 10.31 119.994 10.31H123.504C125.532 10.31 127.098 10.862 128.202 11.966C129.318 13.058 129.876 14.618 129.876 16.646C129.876 18.674 129.318 20.24 128.202 21.344C127.086 22.448 125.52 23 123.504 23H119.994ZM123.414 21.74C126.702 21.74 128.346 20.042 128.346 16.646C128.346 13.262 126.702 11.57 123.414 11.57H120.714V21.74H123.414ZM135.911 14.018C138.107 14.018 139.205 15.17 139.205 17.474V22.37C139.205 22.586 139.139 22.76 139.007 22.892C138.887 23.024 138.719 23.09 138.503 23.09C138.287 23.09 138.113 23.024 137.981 22.892C137.849 22.76 137.783 22.586 137.783 22.37V21.506C137.555 22.022 137.207 22.424 136.739 22.712C136.271 22.988 135.731 23.126 135.119 23.126C134.555 23.126 134.033 23.012 133.553 22.784C133.085 22.556 132.713 22.238 132.437 21.83C132.161 21.422 132.023 20.972 132.023 20.48C132.023 19.82 132.191 19.31 132.527 18.95C132.863 18.578 133.415 18.314 134.183 18.158C134.951 17.99 136.019 17.906 137.387 17.906H137.783V17.312C137.783 16.592 137.633 16.064 137.333 15.728C137.045 15.392 136.571 15.224 135.911 15.224C135.095 15.224 134.267 15.446 133.427 15.89C133.103 16.094 132.875 16.196 132.743 16.196C132.599 16.196 132.479 16.142 132.383 16.034C132.287 15.926 132.239 15.788 132.239 15.62C132.239 15.452 132.287 15.308 132.383 15.188C132.491 15.056 132.659 14.924 132.887 14.792C133.307 14.552 133.781 14.366 134.309 14.234C134.849 14.09 135.383 14.018 135.911 14.018ZM135.317 21.974C136.037 21.974 136.625 21.734 137.081 21.254C137.549 20.762 137.783 20.132 137.783 19.364V18.842H137.459C136.403 18.842 135.599 18.89 135.047 18.986C134.495 19.07 134.099 19.22 133.859 19.436C133.631 19.64 133.517 19.946 133.517 20.354C133.517 20.822 133.685 21.212 134.021 21.524C134.369 21.824 134.801 21.974 135.317 21.974ZM144.825 23.126C144.273 23.126 143.745 23.06 143.241 22.928C142.749 22.796 142.311 22.61 141.927 22.37C141.711 22.226 141.555 22.094 141.459 21.974C141.375 21.842 141.333 21.686 141.333 21.506C141.333 21.35 141.375 21.224 141.459 21.128C141.555 21.02 141.675 20.966 141.819 20.966C141.963 20.966 142.173 21.056 142.449 21.236C142.809 21.452 143.163 21.626 143.511 21.758C143.871 21.878 144.315 21.938 144.843 21.938C145.491 21.938 145.995 21.824 146.355 21.596C146.715 21.368 146.895 21.038 146.895 20.606C146.895 20.342 146.829 20.132 146.697 19.976C146.565 19.808 146.337 19.664 146.013 19.544C145.689 19.412 145.215 19.28 144.591 19.148C143.535 18.92 142.779 18.614 142.323 18.23C141.867 17.846 141.639 17.324 141.639 16.664C141.639 16.148 141.783 15.692 142.071 15.296C142.359 14.9 142.755 14.588 143.259 14.36C143.775 14.132 144.357 14.018 145.005 14.018C145.473 14.018 145.923 14.084 146.355 14.216C146.799 14.336 147.189 14.51 147.525 14.738C147.933 15.026 148.137 15.326 148.137 15.638C148.137 15.794 148.089 15.926 147.993 16.034C147.897 16.142 147.783 16.196 147.651 16.196C147.507 16.196 147.291 16.094 147.003 15.89C146.667 15.674 146.349 15.506 146.049 15.386C145.749 15.266 145.377 15.206 144.933 15.206C144.369 15.206 143.913 15.332 143.565 15.584C143.229 15.836 143.061 16.172 143.061 16.592C143.061 16.856 143.121 17.072 143.241 17.24C143.373 17.396 143.583 17.54 143.871 17.672C144.171 17.792 144.597 17.912 145.149 18.032C145.965 18.212 146.595 18.41 147.039 18.626C147.495 18.842 147.819 19.106 148.011 19.418C148.203 19.73 148.299 20.126 148.299 20.606C148.299 21.362 147.981 21.974 147.345 22.442C146.709 22.898 145.869 23.126 144.825 23.126ZM157.524 21.848C157.716 22.028 157.812 22.22 157.812 22.424C157.812 22.604 157.746 22.76 157.614 22.892C157.494 23.024 157.344 23.09 157.164 23.09C157.008 23.09 156.846 23.018 156.678 22.874L151.98 18.824V22.37C151.98 22.598 151.908 22.778 151.764 22.91C151.632 23.03 151.464 23.09 151.26 23.09C151.044 23.09 150.864 23.03 150.72 22.91C150.588 22.778 150.522 22.598 150.522 22.37V10.94C150.522 10.712 150.588 10.538 150.72 10.418C150.864 10.286 151.044 10.22 151.26 10.22C151.464 10.22 151.632 10.286 151.764 10.418C151.908 10.538 151.98 10.712 151.98 10.94V18.248L156.282 14.306C156.426 14.162 156.588 14.09 156.768 14.09C156.948 14.09 157.104 14.156 157.236 14.288C157.368 14.42 157.434 14.576 157.434 14.756C157.434 14.96 157.35 15.14 157.182 15.296L153.636 18.464L157.524 21.848ZM163.932 14.018C164.7 14.018 165.378 14.204 165.966 14.576C166.554 14.948 167.01 15.476 167.334 16.16C167.658 16.844 167.82 17.636 167.82 18.536C167.82 19.448 167.658 20.252 167.334 20.948C167.01 21.632 166.554 22.166 165.966 22.55C165.378 22.934 164.7 23.126 163.932 23.126C163.248 23.126 162.648 22.976 162.132 22.676C161.628 22.376 161.244 21.95 160.98 21.398V22.37C160.98 22.586 160.914 22.76 160.782 22.892C160.662 23.024 160.488 23.09 160.26 23.09C160.032 23.09 159.852 23.024 159.72 22.892C159.588 22.76 159.522 22.586 159.522 22.37V10.922C159.522 10.718 159.588 10.55 159.72 10.418C159.852 10.286 160.032 10.22 160.26 10.22C160.488 10.22 160.662 10.286 160.782 10.418C160.914 10.538 160.98 10.706 160.98 10.922V15.746C161.244 15.194 161.628 14.768 162.132 14.468C162.648 14.168 163.248 14.018 163.932 14.018ZM163.644 21.92C164.496 21.92 165.156 21.626 165.624 21.038C166.092 20.438 166.326 19.604 166.326 18.536C166.326 17.492 166.092 16.682 165.624 16.106C165.156 15.53 164.496 15.242 163.644 15.242C162.792 15.242 162.132 15.53 161.664 16.106C161.208 16.682 160.98 17.504 160.98 18.572C160.98 19.64 161.208 20.468 161.664 21.056C162.132 21.632 162.792 21.92 163.644 21.92ZM173.634 23.126C172.806 23.126 172.074 22.94 171.438 22.568C170.814 22.196 170.328 21.668 169.98 20.984C169.644 20.288 169.476 19.484 169.476 18.572C169.476 17.66 169.644 16.862 169.98 16.178C170.328 15.482 170.814 14.948 171.438 14.576C172.074 14.204 172.806 14.018 173.634 14.018C174.462 14.018 175.194 14.204 175.83 14.576C176.466 14.948 176.952 15.482 177.288 16.178C177.636 16.862 177.81 17.66 177.81 18.572C177.81 19.484 177.636 20.288 177.288 20.984C176.952 21.668 176.466 22.196 175.83 22.568C175.194 22.94 174.462 23.126 173.634 23.126ZM173.634 21.92C174.498 21.92 175.158 21.638 175.614 21.074C176.082 20.498 176.316 19.664 176.316 18.572C176.316 17.504 176.082 16.682 175.614 16.106C175.146 15.518 174.486 15.224 173.634 15.224C172.782 15.224 172.122 15.518 171.654 16.106C171.186 16.682 170.952 17.504 170.952 18.572C170.952 19.652 171.18 20.48 171.636 21.056C172.104 21.632 172.77 21.92 173.634 21.92ZM183.565 14.018C185.761 14.018 186.859 15.17 186.859 17.474V22.37C186.859 22.586 186.793 22.76 186.661 22.892C186.541 23.024 186.373 23.09 186.157 23.09C185.941 23.09 185.767 23.024 185.635 22.892C185.503 22.76 185.437 22.586 185.437 22.37V21.506C185.209 22.022 184.861 22.424 184.393 22.712C183.925 22.988 183.385 23.126 182.773 23.126C182.209 23.126 181.687 23.012 181.207 22.784C180.739 22.556 180.367 22.238 180.091 21.83C179.815 21.422 179.677 20.972 179.677 20.48C179.677 19.82 179.845 19.31 180.181 18.95C180.517 18.578 181.069 18.314 181.837 18.158C182.605 17.99 183.673 17.906 185.041 17.906H185.437V17.312C185.437 16.592 185.287 16.064 184.987 15.728C184.699 15.392 184.225 15.224 183.565 15.224C182.749 15.224 181.921 15.446 181.081 15.89C180.757 16.094 180.529 16.196 180.397 16.196C180.253 16.196 180.133 16.142 180.037 16.034C179.941 15.926 179.893 15.788 179.893 15.62C179.893 15.452 179.941 15.308 180.037 15.188C180.145 15.056 180.313 14.924 180.541 14.792C180.961 14.552 181.435 14.366 181.963 14.234C182.503 14.09 183.037 14.018 183.565 14.018ZM182.971 21.974C183.691 21.974 184.279 21.734 184.735 21.254C185.203 20.762 185.437 20.132 185.437 19.364V18.842H185.113C184.057 18.842 183.253 18.89 182.701 18.986C182.149 19.07 181.753 19.22 181.513 19.436C181.285 19.64 181.171 19.946 181.171 20.354C181.171 20.822 181.339 21.212 181.675 21.524C182.023 21.824 182.455 21.974 182.971 21.974ZM193.866 14.054C194.37 14.018 194.622 14.222 194.622 14.666C194.622 14.858 194.568 15.014 194.46 15.134C194.352 15.242 194.166 15.308 193.902 15.332L193.362 15.386C192.558 15.458 191.958 15.746 191.562 16.25C191.178 16.742 190.986 17.324 190.986 17.996V22.37C190.986 22.61 190.92 22.79 190.788 22.91C190.656 23.03 190.482 23.09 190.266 23.09C190.05 23.09 189.87 23.03 189.726 22.91C189.594 22.778 189.528 22.598 189.528 22.37V14.774C189.528 14.546 189.6 14.372 189.744 14.252C189.888 14.12 190.062 14.054 190.266 14.054C190.458 14.054 190.62 14.12 190.752 14.252C190.884 14.372 190.95 14.54 190.95 14.756V15.764C191.202 15.236 191.556 14.834 192.012 14.558C192.48 14.282 193.014 14.12 193.614 14.072L193.866 14.054ZM202.736 10.22C202.964 10.22 203.144 10.286 203.276 10.418C203.408 10.55 203.474 10.718 203.474 10.922V22.37C203.474 22.586 203.408 22.76 203.276 22.892C203.144 23.024 202.964 23.09 202.736 23.09C202.508 23.09 202.328 23.024 202.196 22.892C202.076 22.76 202.016 22.586 202.016 22.37V21.398C201.752 21.95 201.362 22.376 200.846 22.676C200.342 22.976 199.748 23.126 199.064 23.126C198.296 23.126 197.618 22.934 197.03 22.55C196.442 22.166 195.986 21.632 195.662 20.948C195.338 20.252 195.176 19.448 195.176 18.536C195.176 17.636 195.338 16.844 195.662 16.16C195.986 15.476 196.442 14.948 197.03 14.576C197.618 14.204 198.296 14.018 199.064 14.018C199.748 14.018 200.342 14.168 200.846 14.468C201.362 14.768 201.752 15.194 202.016 15.746V10.922C202.016 10.706 202.076 10.538 202.196 10.418C202.328 10.286 202.508 10.22 202.736 10.22ZM199.352 21.92C200.204 21.92 200.858 21.632 201.314 21.056C201.782 20.468 202.016 19.64 202.016 18.572C202.016 17.504 201.782 16.682 201.314 16.106C200.858 15.53 200.204 15.242 199.352 15.242C198.5 15.242 197.834 15.53 197.354 16.106C196.886 16.682 196.652 17.492 196.652 18.536C196.652 19.604 196.886 20.438 197.354 21.038C197.834 21.626 198.5 21.92 199.352 21.92Z" fill="white"/>
<path d="M0.512695 27.9002H34.4873V30.5243H0.512695V27.9002Z" fill="#9DC6FB"/>
<path d="M19.8479 19.4756C22.67 19.4756 24.9579 17.1878 24.9579 14.3656C24.9579 11.5434 22.67 9.25562 19.8479 9.25562C17.0257 9.25562 14.7379 11.5434 14.7379 14.3656C14.7379 17.1878 17.0257 19.4756 19.8479 19.4756Z" fill="#FFE07D"/>
<path d="M19.8479 19.4757C20.9937 19.4757 22.0514 19.0985 22.9038 18.4616L18.4049 9.46368C16.2856 10.0866 14.7379 12.0449 14.7379 14.3657C14.7378 17.1878 17.0256 19.4757 19.8479 19.4757Z" fill="#FFD064"/>
<path d="M34.4874 27.9002L25.4374 9.80034C25.1829 9.29141 24.4566 9.29141 24.2022 9.80034L15.1522 27.9002H34.4874Z" fill="#95D6A4"/>
<path d="M21.3877 15.4293L15.1522 27.9002H27.6231L21.3877 15.4293Z" fill="#78C2A4"/>
<path d="M25.9246 27.9003L13.9598 3.97065C13.6544 3.35992 12.7829 3.35992 12.4775 3.97065L0.512695 27.9003H25.9246Z" fill="#B3E59F"/>
<path d="M12.4776 3.97065L12.321 4.28373C13.8717 7.38506 24.1293 27.9003 24.1293 27.9003H25.9247L13.9599 3.97065C13.6545 3.35992 12.7829 3.35992 12.4776 3.97065Z" fill="#95D6A4"/>
<path d="M9.24073 12.5997C9.5072 12.7842 9.86615 12.7585 10.1037 12.5379L11.0484 11.6608C11.3558 11.3752 11.8448 11.4277 12.0848 11.7719L12.6522 12.5861C12.927 12.9804 13.5105 12.9804 13.7853 12.5861L14.3528 11.7719C14.5927 11.4277 15.0817 11.3752 15.3892 11.6608L16.3338 12.5379C16.5713 12.7585 16.9303 12.7842 17.1968 12.5997L17.9973 12.0455C16.5026 9.05613 14.8776 5.80598 13.9599 3.97074C13.6546 3.36001 12.783 3.36001 12.4776 3.97074L8.44025 12.0455L9.24073 12.5997Z" fill="#F9F6F9"/>
<path d="M16.5064 12.6546C16.7252 12.759 16.989 12.7435 17.1968 12.5997L17.9973 12.0455C16.5026 9.05613 14.8775 5.80598 13.9599 3.97074C13.6545 3.36001 12.7829 3.36001 12.4776 3.97074L12.321 4.28382C12.8707 5.38304 14.4973 8.6364 16.5064 12.6546Z" fill="#DFDDE2"/>
<path d="M21.793 16.2585C21.9957 16.3988 22.2688 16.3794 22.4496 16.2115L23.1684 15.5441C23.4024 15.3268 23.7744 15.3668 23.957 15.6286L24.3887 16.2481C24.5978 16.5481 25.0418 16.5481 25.2508 16.2481L25.6826 15.6286C25.8652 15.3666 26.2372 15.3268 26.4711 15.544L27.1899 16.2115C27.3706 16.3793 27.6437 16.3988 27.8465 16.2584L28.4556 15.8368C27.3468 13.6193 26.1438 11.2132 25.4372 9.79996C25.1827 9.29102 24.4565 9.29143 24.2021 9.80037L21.1839 15.8368L21.793 16.2585Z" fill="#DFDDE2"/>
<path d="M34.999 27.9002C34.999 27.8218 34.982 27.7433 34.9459 27.671L31.1091 19.9978C30.9825 19.7446 30.6748 19.6419 30.4212 19.7686C30.168 19.8952 30.0653 20.2031 30.1919 20.4564L33.6576 27.3876H26.2415L21.1117 17.1282L21.3783 16.595L21.5011 16.6799C21.8985 16.9552 22.4442 16.9162 22.7985 16.5872L23.5173 15.9197C23.5194 15.9177 23.5216 15.9158 23.5273 15.9164C23.5331 15.917 23.5347 15.9194 23.5363 15.9218L23.9681 16.5413C24.1622 16.8197 24.4805 16.9858 24.8198 16.9858C25.1591 16.9858 25.4774 16.8196 25.6715 16.5413L26.1032 15.9218C26.1048 15.9194 26.1065 15.9171 26.1123 15.9164C26.1181 15.916 26.1202 15.9178 26.1223 15.9198L26.8412 16.5872C27.1954 16.9162 27.7411 16.9552 28.1384 16.68L28.2613 16.5949L29.1213 18.3148C29.2111 18.4944 29.3922 18.5982 29.5803 18.5982C29.6573 18.5982 29.7355 18.5808 29.8092 18.544C30.0624 18.4174 30.1651 18.1095 30.0385 17.8562L25.8958 9.57146C25.6908 9.16103 25.2785 8.90611 24.8197 8.90611C24.3609 8.90611 23.9486 9.16103 23.7438 9.57125L23.4888 10.0813C22.4783 9.22385 21.1864 8.74301 19.8479 8.74301C18.9315 8.74301 18.0405 8.9636 17.2397 9.38408L14.4184 3.74149C14.1897 3.28417 13.73 3 13.2187 3C13.2187 3 13.2187 3 13.2187 3C12.7073 3 12.2476 3.2841 12.0189 3.74149L6.49886 14.7815C6.37219 15.0348 6.47486 15.3428 6.72813 15.4694C6.98147 15.5961 7.28943 15.4933 7.41604 15.2401L8.63434 12.8035L8.94886 13.0212C9.40946 13.3402 10.0419 13.2949 10.4525 12.9136L11.3971 12.0364C11.4488 11.9884 11.5068 11.9866 11.5371 11.9899C11.5672 11.9931 11.6238 12.0072 11.664 12.065L12.2315 12.8792C12.4564 13.2018 12.8254 13.3945 13.2187 13.3945C13.6119 13.3945 13.9809 13.2018 14.2058 12.8792L14.7733 12.065C14.8136 12.0072 14.8701 11.9931 14.9002 11.9899C14.9304 11.9866 14.9885 11.9884 15.0402 12.0364L15.9848 12.9135C16.3955 13.2949 17.0278 13.3401 17.4884 13.0211L17.8029 12.8034L25.0949 27.3876H1.34224L6.34081 17.3904C6.46748 17.1371 6.3648 16.8292 6.11153 16.7026C5.85813 16.5758 5.55023 16.6786 5.42363 16.9318L0.0541406 27.671C0.0179102 27.7433 0.000957031 27.8218 0.000957031 27.9002C0.000615234 27.9002 0.000341797 27.9002 0 27.9002V30.5243C0 30.8074 0.229482 31.037 0.512695 31.037H34.4873C34.7705 31.037 35 30.8074 35 30.5243V27.9002C34.9997 27.9002 34.9994 27.9002 34.999 27.9002ZM24.8197 9.93144C24.8607 9.93144 24.9358 9.94422 24.9785 10.0297L27.7979 15.6685L27.5546 15.8369C27.5497 15.8403 27.5432 15.8399 27.5388 15.8358L26.82 15.1684C26.5996 14.9637 26.3012 14.8647 26.0029 14.8969C25.7039 14.9289 25.4339 15.0887 25.2619 15.3354L24.8301 15.955C24.8253 15.962 24.8141 15.962 24.8093 15.955L24.3775 15.3355C24.2056 15.0889 23.9355 14.929 23.6366 14.8969C23.3373 14.8648 23.0398 14.9638 22.8195 15.1683L22.1007 15.8358C22.0963 15.8398 22.0896 15.8402 22.0847 15.8369L21.8415 15.6685L24.661 10.0295C24.7036 9.94422 24.7788 9.93144 24.8197 9.93144ZM19.8479 9.76833C21.0275 9.76833 22.1621 10.2263 23.0128 11.0332L20.5386 15.9817L17.6984 10.3015C18.3572 9.95194 19.0918 9.76833 19.8479 9.76833ZM16.9048 12.1781C16.8368 12.2252 16.7433 12.2186 16.6826 12.1622L15.738 11.285C15.4826 11.0478 15.1374 10.9331 14.7909 10.9703C14.4444 11.0075 14.1314 11.1927 13.9321 11.4787L13.3646 12.2929C13.3185 12.3592 13.2534 12.3691 13.2187 12.3691C13.1841 12.3691 13.119 12.3592 13.0728 12.2929L12.5053 11.4787C12.3061 11.1928 11.993 11.0075 11.6465 10.9703C11.3003 10.9331 10.9548 11.0478 10.6995 11.285L9.75482 12.1622C9.69418 12.2185 9.60066 12.2253 9.53258 12.1781L9.09761 11.8769L12.9361 4.19998C13.0149 4.04234 13.16 4.02532 13.2188 4.02532C13.2774 4.02532 13.4225 4.04234 13.5014 4.19998L17.3399 11.877L16.9048 12.1781ZM1.02539 30.0116V28.4129H33.9746V30.0116H1.02539Z" fill="black"/>
</svg>
